<?xml version="1.0" encoding="UTF-8"?>
<svg width="1024px" height="1024px" viewBox="0 0 16 16" version="1.1" xmlns="http://www.w3.org/2000/svg" xmlns:xlink="http://www.w3.org/1999/xlink">
  <path
    d="M160.840404,432.840404 L29,432.840404 L29,432.840404 C12.9837423,432.840404 -1.96142588e-15,445.824146 0,461.840404 L0,562.094949 C1.96142588e-15,578.111207 12.9837423,591.094949 29,591.094949 L160.840404,591.094949 L160.840404,722.935354 C160.840404,738.951611 173.824146,751.935354 189.840404,751.935354 L290.094949,751.935354 C306.111207,751.935354 319.094949,738.951611 319.094949,722.935354 L319.094949,591.094949 L450.935354,591.094949 C466.951611,591.094949 479.935354,578.111207 479.935354,562.094949 L479.935354,562.094949 L479.935354,461.840404 C479.935354,445.824146 466.951611,432.840404 450.935354,432.840404 L319.094949,432.840404 L319.094949,301 C319.094949,284.983742 306.111207,272 290.094949,272 L290.094949,272 L189.840404,272 C173.824146,272 160.840404,284.983742 160.840404,301 L160.840404,432.840404 Z M741.107071,703.838384 C688.266251,703.838384 645.430303,661.002436 645.430303,608.161616 C645.430303,555.320796 688.266251,512.484848 741.107071,512.484848 C793.94789,512.484848 836.783838,555.320796 836.783838,608.161616 C836.783838,661.002436 793.94789,703.838384 741.107071,703.838384 Z M928.323232,512.484848 C875.482413,512.484848 832.646465,469.648901 832.646465,416.808081 C832.646465,363.967261 875.482413,321.131313 928.323232,321.131313 C981.164052,321.131313 1024,363.967261 1024,416.808081 C1024,469.648901 981.164052,512.484848 928.323232,512.484848 Z"
    id="Combined-Shape"></path>
</svg>
