<?xml version="1.0" encoding="UTF-8" ?><!DOCTYPE svg PUBLIC "-//W3C//DTD SVG 1.1//EN" "http://www.w3.org/Graphics/SVG/1.1/DTD/svg11.dtd"><svg width="17px" height="17px" viewBox="0 0 100 47" version="1.1" xmlns="http://www.w3.org/2000/svg"><path stroke-width="1" stroke="black" d="M22 4 L22 5 L22 6 L22 7 L22 8 L22 9 L22 10 L22 11 L22 12 L22 13 L22 14 L22 15 L22 16 L9 17 L9 18 L9 19 L9 20 L9 21 L9 22 L9 23 L9 24 L9 25 L9 26 L9 27 L9 28 L9 29 L22 30 L22 31 L22 32 L22 33 L22 34 L22 35 L22 36 L22 37 L22 38 L22 39 L22 40 L22 41 L22 42 L33 42 L33 41 L33 40 L33 39 L33 38 L33 37 L33 36 L33 35 L33 34 L33 33 L33 32 L33 31 L33 30 L46 29 L47 28 L47 27 L47 26 L47 25 L47 24 L47 23 L47 22 L47 21 L47 20 L47 19 L47 18 L46 17 L33 16 L33 15 L33 14 L33 13 L33 12 L33 11 L33 10 L33 9 L33 8 L33 7 L33 6 L33 5 L33 4 Z" /><path stroke-width="1" stroke="black" d="M82 8 L80 9 L79 10 L78 11 L77 12 L77 13 L77 14 L76 15 L76 16 L77 17 L77 18 L77 19 L78 20 L79 21 L80 22 L87 22 L88 21 L89 20 L90 19 L90 18 L91 17 L91 16 L91 15 L91 14 L90 13 L90 12 L89 11 L89 10 L87 9 L85 8 Z" /><path stroke-width="1" stroke="black" d="M65 24 L63 25 L63 26 L62 27 L61 28 L61 29 L61 30 L61 31 L61 32 L61 33 L62 34 L63 35 L63 36 L65 37 L67 38 L69 38 L72 37 L73 36 L74 35 L75 34 L75 33 L75 32 L75 31 L75 30 L75 29 L75 28 L75 27 L74 26 L73 25 L72 24 Z" /></svg>