<?xml version="1.0" encoding="UTF-8"?>
<svg width="16px" height="16px" viewBox="0 0 16 16" version="1.1" xmlns="http://www.w3.org/2000/svg" xmlns:xlink="http://www.w3.org/1999/xlink">
  <defs></defs>
  <path
    d="M2.51296478,6.64346994 L0.600000024,6.64346994 L0.600000024,6.64346994 C0.268629161,6.64346994 -4.05812267e-17,6.9120991 0,7.24346997 L0,8.51653026 C4.05812267e-17,8.84790113 0.268629161,9.11653029 0.600000024,9.11653029 L0.600000024,9.11653029 L2.51296478,9.11653029 L2.51296478,11.029495 C2.51296478,11.3608659 2.78159394,11.6294951 3.1129648,11.6294951 L4.3860251,11.6294951 C4.71739596,11.6294951 4.98602512,11.3608659 4.98602512,11.029495 L4.98602512,9.11653029 L6.89898988,9.11653029 C7.23036074,9.11653029 7.4989899,8.84790113 7.4989899,8.51653026 L7.4989899,8.51653026 L7.4989899,7.24346997 C7.4989899,6.9120991 7.23036074,6.64346994 6.89898988,6.64346994 L4.98602512,6.64346994 L4.98602512,4.73050519 C4.98602512,4.39913433 4.71739596,4.13050516 4.3860251,4.13050516 L4.3860251,4.13050516 L3.1129648,4.13050516 C2.78159394,4.13050516 2.51296478,4.39913433 2.51296478,4.73050519 L2.51296478,6.64346994 Z M11.579798,10.8783837 C10.7541602,10.8783837 10.0848485,10.2089819 10.0848485,9.38323287 C10.0848485,8.55748385 10.7541602,7.88808201 11.579798,7.88808201 C12.4054358,7.88808201 13.0747475,8.55748385 13.0747475,9.38323287 C13.0747475,10.2089819 12.4054358,10.8783837 11.579798,10.8783837 Z M14.5050505,7.88808201 C13.6794127,7.88808201 13.010101,7.21868017 13.010101,6.39293115 C13.010101,5.56718213 13.6794127,4.89778029 14.5050505,4.89778029 C15.3306883,4.89778029 16,5.56718213 16,6.39293115 C16,7.21868017 15.3306883,7.88808201 14.5050505,7.88808201 Z"
    id="Combined-Shape"></path>
</svg>
